<svg width="500" height="500" xmlns="http://www.w3.org/2000/svg" xmlns:bx="https://boxy-svg.com"><circle style="stroke-opacity:0;stroke:#6273a4;fill:#6273a4" cx="249.723" cy="249.446" r="245.898"/><ellipse style="fill:#ffb86c;stroke-width:40px;stroke:#44475a;stroke-opacity:0" cx="253.486" cy="260.064" rx="218.986" ry="219.491"/><ellipse style="fill:#f8f8f2;stroke:#282a36;stroke-width:40px" cx="121.9" cy="308" rx="101.801" ry="101.8"/><ellipse style="fill:#f8f8f2;stroke:#282a36;stroke-width:40px" cx="377.6" cy="308" rx="101.801" ry="101.8"/><path d="M233.19 308.055q14.239-29.045 28.478 0l40.308 82.222q14.239 29.045-14.238 29.045H207.12q-28.477 0-14.238-29.045Z" style="stroke:#000;stroke-linecap:round;stroke-opacity:0;fill:#ce6358" bx:shape="triangle 178.643 279.01 137.572 140.312 0.5 0.207 1@6d872d45"/><path style="fill:#d8d8d8;stroke:#282a36;stroke-width:30px" d="M206.98 295h86.04-86.04Z"/><path style="stroke:#f1fa8c;stroke-opacity:0;fill:#ffe76c" d="m74.636 134.71 75.544 32.539 1.066-39.977 176.39 60.549 4.847-58.046s78.385 36.429 79.33 34.569c.945-1.86 14.241-35.499 14.241-35.499C406.878 25.49 86.384-10.03 74.636 134.71Z"/><ellipse style="stroke:#000;fill:#44475a;stroke-opacity:0" cx="127.142" cy="306.113" rx="64.873" ry="64.913"/><ellipse style="stroke:#000;fill:#44475a;stroke-opacity:0" cx="372.8" cy="306.1" rx="64.873" ry="64.913"/><circle style="stroke:#000;fill:#6273a4" r="0"/></svg>